<svg xmlns="http://www.w3.org/2000/svg" xmlns:xlink="http://www.w3.org/1999/xlink" version="1.1" id="Capa_1" x="0px" y="0px" width="96.4px" height="92.286px" viewBox="0 0 96.4 92.286" enable-background="new 0 0 96.4 92.286" xml:space="preserve">
<path d="M82.7,0.643h-70c-5.523,0-10,4.477-10,10v70c0,5.522,4.477,10,10,10h70c5.523,0,10-4.478,10-10v-70  C92.7,5.12,88.223,0.643,82.7,0.643z M68.224,55.24c3.017,3.018,3.018,7.91,0,10.928s-7.91,3.017-10.928,0L47.7,56.57l-9.597,9.598  c-3.017,3.017-7.909,3.018-10.927,0s-3.017-7.91,0-10.928l9.597-9.597l-9.597-9.597c-3.018-3.018-3.018-7.909,0-10.927  s7.909-3.018,10.927,0l9.597,9.597l9.597-9.597c3.018-3.018,7.91-3.018,10.928,0s3.018,7.909,0,10.927l-9.598,9.597L68.224,55.24z"/>
</svg>