<svg xmlns="http://www.w3.org/2000/svg" xmlns:xlink="http://www.w3.org/1999/xlink" version="1.1" id="Layer_1" x="0px" y="0px" width="100px" height="100px" viewBox="0 0 100 100" enable-background="new 0 0 100 100" xml:space="preserve">
<g>
	<path d="M47.207,12.718c-0.948-0.372-1.938-0.552-2.917-0.552c-2.187,0-4.327,0.897-5.872,2.565L26.043,28.094h-8.005   c-4.418,0-8,3.582-8,8v28.085c0,4.418,3.582,8,8,8h7.996l12.374,13.412c1.545,1.675,3.69,2.575,5.882,2.575   c0.978,0,1.964-0.179,2.91-0.549c3.068-1.199,5.088-4.157,5.088-7.451v-60C52.288,16.875,50.272,13.919,47.207,12.718z    M44.288,80.166l-14.75-15.987h-11.5V36.094h11.5l14.75-15.927V80.166z"/>
	<path d="M84.86,23.775c-0.864-2.032-3.214-2.98-5.247-2.113c-2.033,0.865-2.979,3.214-2.113,5.247   c3.152,7.404,4.75,15.27,4.75,23.38c0,8.11-1.598,15.977-4.75,23.381c-0.865,2.032,0.08,4.382,2.113,5.247   c0.512,0.218,1.043,0.32,1.564,0.32c1.557,0,3.035-0.913,3.683-2.435c3.576-8.4,5.39-17.321,5.39-26.514   C90.25,41.096,88.437,32.176,84.86,23.775z"/>
	<path d="M66.844,29.059c-2.064,0.79-3.098,3.102-2.309,5.165c1.968,5.143,2.965,10.548,2.965,16.065   c0,5.519-0.998,10.923-2.965,16.064c-0.789,2.063,0.244,4.376,2.307,5.166c0.471,0.18,0.953,0.265,1.429,0.265   c1.61,0,3.128-0.979,3.737-2.571c2.316-6.059,3.492-12.425,3.492-18.924c0-6.498-1.175-12.864-3.492-18.923   C71.219,29.303,68.906,28.269,66.844,29.059z"/>
</g>
</svg>